<svg xmlns="http://www.w3.org/2000/svg" xmlns:xlink="http://www.w3.org/1999/xlink" width="500" zoomAndPan="magnify" viewBox="0 0 375 374.999991" height="500" preserveAspectRatio="xMidYMid meet" version="1.0"><defs><filter x="0%" y="0%" width="100%" height="100%" id="52019c6cbe"><feColorMatrix values="0 0 0 0 1 0 0 0 0 1 0 0 0 0 1 0 0 0 1 0" color-interpolation-filters="sRGB"/></filter><clipPath id="e4e6b32cf5"><path d="M 374.96875 187.53125 C 374.96875 190.601562 374.894531 193.667969 374.742188 196.730469 C 374.59375 199.796875 374.367188 202.855469 374.066406 205.910156 C 373.765625 208.964844 373.390625 212.007812 372.9375 215.042969 C 372.488281 218.078125 371.964844 221.101562 371.367188 224.109375 C 370.765625 227.121094 370.09375 230.113281 369.347656 233.089844 C 368.605469 236.066406 367.785156 239.023438 366.894531 241.960938 C 366.003906 244.894531 365.042969 247.808594 364.007812 250.699219 C 362.972656 253.585938 361.871094 256.449219 360.695312 259.285156 C 359.523438 262.121094 358.277344 264.921875 356.964844 267.699219 C 355.65625 270.472656 354.277344 273.210938 352.828125 275.917969 C 351.382812 278.625 349.871094 281.292969 348.292969 283.925781 C 346.714844 286.558594 345.074219 289.148438 343.371094 291.699219 C 341.664062 294.253906 339.898438 296.761719 338.070312 299.226562 C 336.242188 301.691406 334.355469 304.109375 332.410156 306.480469 C 330.460938 308.851562 328.457031 311.175781 326.398438 313.449219 C 324.335938 315.722656 322.222656 317.945312 320.050781 320.113281 C 317.882812 322.285156 315.660156 324.398438 313.386719 326.460938 C 311.113281 328.519531 308.789062 330.523438 306.417969 332.46875 C 304.046875 334.417969 301.628906 336.304688 299.164062 338.132812 C 296.699219 339.960938 294.191406 341.726562 291.636719 343.433594 C 289.085938 345.136719 286.496094 346.777344 283.863281 348.355469 C 281.230469 349.933594 278.5625 351.445312 275.855469 352.890625 C 273.148438 354.339844 270.410156 355.71875 267.636719 357.027344 C 264.859375 358.339844 262.058594 359.585938 259.222656 360.757812 C 256.386719 361.933594 253.523438 363.035156 250.636719 364.070312 C 247.746094 365.105469 244.832031 366.066406 241.898438 366.957031 C 238.960938 367.847656 236.003906 368.667969 233.027344 369.410156 C 230.050781 370.15625 227.058594 370.828125 224.046875 371.429688 C 221.039062 372.027344 218.015625 372.550781 214.980469 373 C 211.945312 373.453125 208.902344 373.828125 205.847656 374.128906 C 202.792969 374.429688 199.734375 374.65625 196.667969 374.804688 C 193.605469 374.957031 190.539062 375.03125 187.46875 375.03125 C 184.398438 375.03125 181.332031 374.957031 178.269531 374.804688 C 175.203125 374.65625 172.144531 374.429688 169.089844 374.128906 C 166.035156 373.828125 162.992188 373.453125 159.957031 373 C 156.921875 372.550781 153.898438 372.027344 150.890625 371.429688 C 147.878906 370.828125 144.886719 370.15625 141.910156 369.410156 C 138.933594 368.667969 135.976562 367.847656 133.039062 366.957031 C 130.105469 366.066406 127.191406 365.105469 124.300781 364.070312 C 121.414062 363.035156 118.550781 361.933594 115.714844 360.757812 C 112.878906 359.585938 110.074219 358.339844 107.300781 357.027344 C 104.527344 355.71875 101.789062 354.339844 99.082031 352.890625 C 96.375 351.445312 93.707031 349.933594 91.074219 348.355469 C 88.441406 346.777344 85.851562 345.136719 83.300781 343.433594 C 80.746094 341.726562 78.238281 339.960938 75.773438 338.132812 C 73.308594 336.304688 70.890625 334.417969 68.519531 332.46875 C 66.148438 330.523438 63.824219 328.519531 61.550781 326.460938 C 59.277344 324.398438 57.054688 322.285156 54.886719 320.113281 C 52.714844 317.945312 50.601562 315.722656 48.539062 313.449219 C 46.480469 311.175781 44.476562 308.851562 42.527344 306.480469 C 40.582031 304.109375 38.695312 301.691406 36.867188 299.226562 C 35.039062 296.761719 33.273438 294.253906 31.566406 291.699219 C 29.863281 289.148438 28.222656 286.558594 26.644531 283.925781 C 25.066406 281.292969 23.554688 278.625 22.109375 275.917969 C 20.660156 273.210938 19.28125 270.472656 17.972656 267.699219 C 16.660156 264.921875 15.414062 262.121094 14.242188 259.285156 C 13.066406 256.449219 11.964844 253.585938 10.929688 250.699219 C 9.894531 247.808594 8.933594 244.894531 8.042969 241.960938 C 7.152344 239.023438 6.332031 236.066406 5.585938 233.089844 C 4.84375 230.113281 4.171875 227.121094 3.570312 224.109375 C 2.972656 221.101562 2.449219 218.078125 2 215.042969 C 1.546875 212.007812 1.171875 208.964844 0.871094 205.910156 C 0.570312 202.855469 0.34375 199.796875 0.195312 196.730469 C 0.0429688 193.667969 -0.03125 190.601562 -0.03125 187.53125 C -0.03125 184.460938 0.0429688 181.394531 0.195312 178.332031 C 0.34375 175.265625 0.570312 172.207031 0.871094 169.152344 C 1.171875 166.097656 1.546875 163.054688 2 160.019531 C 2.449219 156.984375 2.972656 153.960938 3.570312 150.953125 C 4.171875 147.941406 4.84375 144.949219 5.585938 141.972656 C 6.332031 138.996094 7.152344 136.039062 8.042969 133.101562 C 8.933594 130.167969 9.894531 127.253906 10.929688 124.363281 C 11.964844 121.476562 13.066406 118.613281 14.242188 115.777344 C 15.414062 112.941406 16.660156 110.136719 17.972656 107.363281 C 19.28125 104.589844 20.660156 101.851562 22.109375 99.144531 C 23.554688 96.4375 25.066406 93.769531 26.644531 91.136719 C 28.222656 88.503906 29.863281 85.914062 31.566406 83.363281 C 33.273438 80.808594 35.039062 78.300781 36.867188 75.835938 C 38.695312 73.371094 40.582031 70.953125 42.527344 68.582031 C 44.476562 66.210938 46.480469 63.886719 48.539062 61.613281 C 50.601562 59.339844 52.714844 57.117188 54.886719 54.949219 C 57.054688 52.777344 59.277344 50.664062 61.550781 48.601562 C 63.824219 46.542969 66.148438 44.539062 68.519531 42.589844 C 70.890625 40.644531 73.308594 38.757812 75.773438 36.929688 C 78.238281 35.101562 80.746094 33.335938 83.300781 31.628906 C 85.851562 29.925781 88.441406 28.285156 91.074219 26.707031 C 93.707031 25.128906 96.375 23.617188 99.082031 22.171875 C 101.789062 20.722656 104.527344 19.34375 107.300781 18.035156 C 110.074219 16.722656 112.878906 15.476562 115.714844 14.304688 C 118.550781 13.128906 121.414062 12.027344 124.300781 10.992188 C 127.191406 9.957031 130.105469 8.996094 133.039062 8.105469 C 135.976562 7.214844 138.933594 6.394531 141.910156 5.652344 C 144.886719 4.90625 147.878906 4.234375 150.890625 3.632812 C 153.898438 3.035156 156.921875 2.511719 159.957031 2.0625 C 162.992188 1.609375 166.035156 1.234375 169.089844 0.933594 C 172.144531 0.632812 175.203125 0.40625 178.269531 0.257812 C 181.332031 0.105469 184.398438 0.03125 187.46875 0.03125 C 190.539062 0.03125 193.605469 0.105469 196.667969 0.257812 C 199.734375 0.40625 202.792969 0.632812 205.847656 0.933594 C 208.902344 1.234375 211.945312 1.609375 214.980469 2.0625 C 218.015625 2.511719 221.039062 3.035156 224.046875 3.632812 C 227.058594 4.234375 230.050781 4.90625 233.027344 5.652344 C 236.003906 6.394531 238.960938 7.214844 241.898438 8.105469 C 244.832031 8.996094 247.746094 9.957031 250.636719 10.992188 C 253.523438 12.027344 256.386719 13.128906 259.222656 14.304688 C 262.058594 15.476562 264.859375 16.722656 267.636719 18.035156 C 270.410156 19.34375 273.148438 20.722656 275.855469 22.171875 C 278.5625 23.617188 281.230469 25.128906 283.863281 26.707031 C 286.496094 28.285156 289.085938 29.925781 291.636719 31.628906 C 294.191406 33.335938 296.699219 35.101562 299.164062 36.929688 C 301.628906 38.757812 304.046875 40.644531 306.417969 42.589844 C 308.789062 44.539062 311.113281 46.542969 313.386719 48.601562 C 315.660156 50.664062 317.882812 52.777344 320.050781 54.949219 C 322.222656 57.117188 324.335938 59.339844 326.398438 61.613281 C 328.457031 63.886719 330.460938 66.210938 332.410156 68.582031 C 334.355469 70.953125 336.242188 73.371094 338.070312 75.835938 C 339.898438 78.300781 341.664062 80.808594 343.371094 83.363281 C 345.074219 85.914062 346.714844 88.503906 348.292969 91.136719 C 349.871094 93.769531 351.382812 96.4375 352.828125 99.144531 C 354.277344 101.851562 355.65625 104.589844 356.964844 107.363281 C 358.277344 110.136719 359.523438 112.941406 360.695312 115.777344 C 361.871094 118.613281 362.972656 121.476562 364.007812 124.363281 C 365.042969 127.253906 366.003906 130.167969 366.894531 133.101562 C 367.785156 136.039062 368.605469 138.996094 369.347656 141.972656 C 370.09375 144.949219 370.765625 147.941406 371.367188 150.953125 C 371.964844 153.960938 372.488281 156.984375 372.9375 160.019531 C 373.390625 163.054688 373.765625 166.097656 374.066406 169.152344 C 374.367188 172.207031 374.59375 175.265625 374.742188 178.332031 C 374.894531 181.394531 374.96875 184.460938 374.96875 187.53125 Z M 374.96875 187.53125 " clip-rule="nonzero"/></clipPath><linearGradient x1="6.279905" gradientTransform="matrix(0.78125, 0, 0, 0.78125, -4.92187, -5.23437)" y1="6.760095" x2="486.240613" gradientUnits="userSpaceOnUse" y2="486.71942" id="05062dd052"><stop stop-opacity="1" stop-color="rgb(58.799744%, 45.899963%, 70.599365%)" offset="0"/><stop stop-opacity="1" stop-color="rgb(58.799744%, 45.899963%, 70.599365%)" offset="0.125"/><stop stop-opacity="1" stop-color="rgb(58.816528%, 45.909119%, 70.593262%)" offset="0.140625"/><stop stop-opacity="1" stop-color="rgb(59.043884%, 46.044922%, 70.516968%)" offset="0.144531"/><stop stop-opacity="1" stop-color="rgb(59.254456%, 46.170044%, 70.446777%)" offset="0.148438"/><stop stop-opacity="1" stop-color="rgb(59.465027%, 46.295166%, 70.375061%)" offset="0.152344"/><stop stop-opacity="1" stop-color="rgb(59.675598%, 46.420288%, 70.304871%)" offset="0.15625"/><stop stop-opacity="1" stop-color="rgb(59.886169%, 46.54541%, 70.23468%)" offset="0.160156"/><stop stop-opacity="1" stop-color="rgb(60.096741%, 46.672058%, 70.16449%)" offset="0.164063"/><stop stop-opacity="1" stop-color="rgb(60.307312%, 46.79718%, 70.094299%)" offset="0.167969"/><stop stop-opacity="1" stop-color="rgb(60.517883%, 46.922302%, 70.024109%)" offset="0.171875"/><stop stop-opacity="1" stop-color="rgb(60.728455%, 47.047424%, 69.952393%)" offset="0.175781"/><stop stop-opacity="1" stop-color="rgb(60.939026%, 47.172546%, 69.882202%)" offset="0.179688"/><stop stop-opacity="1" stop-color="rgb(61.149597%, 47.297668%, 69.812012%)" offset="0.183594"/><stop stop-opacity="1" stop-color="rgb(61.360168%, 47.424316%, 69.741821%)" offset="0.1875"/><stop stop-opacity="1" stop-color="rgb(61.57074%, 47.549438%, 69.670105%)" offset="0.191406"/><stop stop-opacity="1" stop-color="rgb(61.781311%, 47.674561%, 69.599915%)" offset="0.195313"/><stop stop-opacity="1" stop-color="rgb(61.990356%, 47.799683%, 69.529724%)" offset="0.199219"/><stop stop-opacity="1" stop-color="rgb(62.200928%, 47.924805%, 69.459534%)" offset="0.203125"/><stop stop-opacity="1" stop-color="rgb(62.411499%, 48.049927%, 69.387817%)" offset="0.207031"/><stop stop-opacity="1" stop-color="rgb(62.62207%, 48.175049%, 69.317627%)" offset="0.210938"/><stop stop-opacity="1" stop-color="rgb(62.832642%, 48.300171%, 69.247437%)" offset="0.214844"/><stop stop-opacity="1" stop-color="rgb(63.043213%, 48.426819%, 69.177246%)" offset="0.21875"/><stop stop-opacity="1" stop-color="rgb(63.253784%, 48.551941%, 69.107056%)" offset="0.222656"/><stop stop-opacity="1" stop-color="rgb(63.464355%, 48.677063%, 69.036865%)" offset="0.226563"/><stop stop-opacity="1" stop-color="rgb(63.674927%, 48.802185%, 68.965149%)" offset="0.230469"/><stop stop-opacity="1" stop-color="rgb(63.885498%, 48.927307%, 68.894958%)" offset="0.234375"/><stop stop-opacity="1" stop-color="rgb(64.096069%, 49.052429%, 68.824768%)" offset="0.238281"/><stop stop-opacity="1" stop-color="rgb(64.306641%, 49.177551%, 68.754578%)" offset="0.242188"/><stop stop-opacity="1" stop-color="rgb(64.517212%, 49.302673%, 68.682861%)" offset="0.246094"/><stop stop-opacity="1" stop-color="rgb(64.727783%, 49.429321%, 68.612671%)" offset="0.25"/><stop stop-opacity="1" stop-color="rgb(64.938354%, 49.554443%, 68.54248%)" offset="0.253906"/><stop stop-opacity="1" stop-color="rgb(65.148926%, 49.679565%, 68.47229%)" offset="0.257812"/><stop stop-opacity="1" stop-color="rgb(65.359497%, 49.804688%, 68.400574%)" offset="0.261719"/><stop stop-opacity="1" stop-color="rgb(65.570068%, 49.92981%, 68.330383%)" offset="0.265625"/><stop stop-opacity="1" stop-color="rgb(65.78064%, 50.054932%, 68.260193%)" offset="0.269531"/><stop stop-opacity="1" stop-color="rgb(65.991211%, 50.180054%, 68.190002%)" offset="0.273438"/><stop stop-opacity="1" stop-color="rgb(66.200256%, 50.305176%, 68.118286%)" offset="0.277344"/><stop stop-opacity="1" stop-color="rgb(66.410828%, 50.431824%, 68.048096%)" offset="0.28125"/><stop stop-opacity="1" stop-color="rgb(66.621399%, 50.556946%, 67.977905%)" offset="0.285156"/><stop stop-opacity="1" stop-color="rgb(66.83197%, 50.682068%, 67.907715%)" offset="0.289062"/><stop stop-opacity="1" stop-color="rgb(67.042542%, 50.80719%, 67.837524%)" offset="0.292969"/><stop stop-opacity="1" stop-color="rgb(67.253113%, 50.932312%, 67.767334%)" offset="0.296875"/><stop stop-opacity="1" stop-color="rgb(67.463684%, 51.057434%, 67.695618%)" offset="0.300781"/><stop stop-opacity="1" stop-color="rgb(67.674255%, 51.182556%, 67.625427%)" offset="0.304688"/><stop stop-opacity="1" stop-color="rgb(67.884827%, 51.307678%, 67.555237%)" offset="0.308594"/><stop stop-opacity="1" stop-color="rgb(68.095398%, 51.434326%, 67.485046%)" offset="0.3125"/><stop stop-opacity="1" stop-color="rgb(68.305969%, 51.559448%, 67.41333%)" offset="0.316406"/><stop stop-opacity="1" stop-color="rgb(68.516541%, 51.68457%, 67.34314%)" offset="0.320313"/><stop stop-opacity="1" stop-color="rgb(68.727112%, 51.809692%, 67.272949%)" offset="0.324219"/><stop stop-opacity="1" stop-color="rgb(68.937683%, 51.934814%, 67.202759%)" offset="0.328125"/><stop stop-opacity="1" stop-color="rgb(69.148254%, 52.059937%, 67.131042%)" offset="0.332031"/><stop stop-opacity="1" stop-color="rgb(69.358826%, 52.185059%, 67.060852%)" offset="0.335938"/><stop stop-opacity="1" stop-color="rgb(69.569397%, 52.310181%, 66.990662%)" offset="0.339844"/><stop stop-opacity="1" stop-color="rgb(69.779968%, 52.436829%, 66.920471%)" offset="0.34375"/><stop stop-opacity="1" stop-color="rgb(69.99054%, 52.561951%, 66.848755%)" offset="0.347656"/><stop stop-opacity="1" stop-color="rgb(70.201111%, 52.687073%, 66.778564%)" offset="0.351563"/><stop stop-opacity="1" stop-color="rgb(70.410156%, 52.812195%, 66.708374%)" offset="0.355469"/><stop stop-opacity="1" stop-color="rgb(70.620728%, 52.937317%, 66.638184%)" offset="0.359375"/><stop stop-opacity="1" stop-color="rgb(70.831299%, 53.062439%, 66.567993%)" offset="0.363281"/><stop stop-opacity="1" stop-color="rgb(71.04187%, 53.187561%, 66.497803%)" offset="0.367188"/><stop stop-opacity="1" stop-color="rgb(71.252441%, 53.312683%, 66.426086%)" offset="0.371094"/><stop stop-opacity="1" stop-color="rgb(71.463013%, 53.439331%, 66.355896%)" offset="0.375"/><stop stop-opacity="1" stop-color="rgb(71.673584%, 53.564453%, 66.285706%)" offset="0.378906"/><stop stop-opacity="1" stop-color="rgb(71.884155%, 53.689575%, 66.215515%)" offset="0.382812"/><stop stop-opacity="1" stop-color="rgb(72.094727%, 53.814697%, 66.143799%)" offset="0.386719"/><stop stop-opacity="1" stop-color="rgb(72.305298%, 53.939819%, 66.073608%)" offset="0.390625"/><stop stop-opacity="1" stop-color="rgb(72.515869%, 54.064941%, 66.003418%)" offset="0.394531"/><stop stop-opacity="1" stop-color="rgb(72.72644%, 54.191589%, 65.933228%)" offset="0.398438"/><stop stop-opacity="1" stop-color="rgb(72.937012%, 54.316711%, 65.861511%)" offset="0.402344"/><stop stop-opacity="1" stop-color="rgb(73.147583%, 54.441833%, 65.791321%)" offset="0.40625"/><stop stop-opacity="1" stop-color="rgb(73.358154%, 54.566956%, 65.72113%)" offset="0.410156"/><stop stop-opacity="1" stop-color="rgb(73.568726%, 54.692078%, 65.65094%)" offset="0.414062"/><stop stop-opacity="1" stop-color="rgb(73.779297%, 54.8172%, 65.579224%)" offset="0.417969"/><stop stop-opacity="1" stop-color="rgb(73.989868%, 54.942322%, 65.509033%)" offset="0.421875"/><stop stop-opacity="1" stop-color="rgb(74.200439%, 55.067444%, 65.438843%)" offset="0.425781"/><stop stop-opacity="1" stop-color="rgb(74.411011%, 55.194092%, 65.368652%)" offset="0.429688"/><stop stop-opacity="1" stop-color="rgb(74.620056%, 55.319214%, 65.298462%)" offset="0.433594"/><stop stop-opacity="1" stop-color="rgb(74.830627%, 55.444336%, 65.228271%)" offset="0.4375"/><stop stop-opacity="1" stop-color="rgb(75.041199%, 55.569458%, 65.156555%)" offset="0.441406"/><stop stop-opacity="1" stop-color="rgb(75.25177%, 55.69458%, 65.086365%)" offset="0.445313"/><stop stop-opacity="1" stop-color="rgb(75.462341%, 55.819702%, 65.016174%)" offset="0.449219"/><stop stop-opacity="1" stop-color="rgb(75.672913%, 55.944824%, 64.945984%)" offset="0.453125"/><stop stop-opacity="1" stop-color="rgb(75.883484%, 56.069946%, 64.874268%)" offset="0.457031"/><stop stop-opacity="1" stop-color="rgb(76.094055%, 56.196594%, 64.804077%)" offset="0.460938"/><stop stop-opacity="1" stop-color="rgb(76.304626%, 56.321716%, 64.733887%)" offset="0.464844"/><stop stop-opacity="1" stop-color="rgb(76.515198%, 56.446838%, 64.663696%)" offset="0.46875"/><stop stop-opacity="1" stop-color="rgb(76.725769%, 56.57196%, 64.59198%)" offset="0.472656"/><stop stop-opacity="1" stop-color="rgb(76.93634%, 56.697083%, 64.52179%)" offset="0.476563"/><stop stop-opacity="1" stop-color="rgb(77.146912%, 56.822205%, 64.451599%)" offset="0.480469"/><stop stop-opacity="1" stop-color="rgb(77.357483%, 56.947327%, 64.381409%)" offset="0.484375"/><stop stop-opacity="1" stop-color="rgb(77.568054%, 57.072449%, 64.311218%)" offset="0.488281"/><stop stop-opacity="1" stop-color="rgb(77.778625%, 57.199097%, 64.241028%)" offset="0.492188"/><stop stop-opacity="1" stop-color="rgb(77.989197%, 57.324219%, 64.169312%)" offset="0.496094"/><stop stop-opacity="1" stop-color="rgb(78.199768%, 57.449341%, 64.099121%)" offset="0.5"/><stop stop-opacity="1" stop-color="rgb(78.410339%, 57.574463%, 64.028931%)" offset="0.503906"/><stop stop-opacity="1" stop-color="rgb(78.620911%, 57.699585%, 63.95874%)" offset="0.507812"/><stop stop-opacity="1" stop-color="rgb(78.829956%, 57.824707%, 63.887024%)" offset="0.511719"/><stop stop-opacity="1" stop-color="rgb(79.040527%, 57.949829%, 63.816833%)" offset="0.515625"/><stop stop-opacity="1" stop-color="rgb(79.251099%, 58.074951%, 63.746643%)" offset="0.519531"/><stop stop-opacity="1" stop-color="rgb(79.46167%, 58.201599%, 63.676453%)" offset="0.523438"/><stop stop-opacity="1" stop-color="rgb(79.672241%, 58.326721%, 63.604736%)" offset="0.527344"/><stop stop-opacity="1" stop-color="rgb(79.882812%, 58.451843%, 63.534546%)" offset="0.53125"/><stop stop-opacity="1" stop-color="rgb(80.093384%, 58.576965%, 63.464355%)" offset="0.535156"/><stop stop-opacity="1" stop-color="rgb(80.303955%, 58.702087%, 63.394165%)" offset="0.539062"/><stop stop-opacity="1" stop-color="rgb(80.514526%, 58.827209%, 63.322449%)" offset="0.542969"/><stop stop-opacity="1" stop-color="rgb(80.725098%, 58.952332%, 63.252258%)" offset="0.546875"/><stop stop-opacity="1" stop-color="rgb(80.935669%, 59.077454%, 63.182068%)" offset="0.550781"/><stop stop-opacity="1" stop-color="rgb(81.14624%, 59.204102%, 63.111877%)" offset="0.554688"/><stop stop-opacity="1" stop-color="rgb(81.356812%, 59.329224%, 63.041687%)" offset="0.558594"/><stop stop-opacity="1" stop-color="rgb(81.567383%, 59.454346%, 62.971497%)" offset="0.5625"/><stop stop-opacity="1" stop-color="rgb(81.777954%, 59.579468%, 62.89978%)" offset="0.566406"/><stop stop-opacity="1" stop-color="rgb(81.988525%, 59.70459%, 62.82959%)" offset="0.570312"/><stop stop-opacity="1" stop-color="rgb(82.199097%, 59.829712%, 62.759399%)" offset="0.574219"/><stop stop-opacity="1" stop-color="rgb(82.409668%, 59.95636%, 62.689209%)" offset="0.578125"/><stop stop-opacity="1" stop-color="rgb(82.620239%, 60.081482%, 62.617493%)" offset="0.582031"/><stop stop-opacity="1" stop-color="rgb(82.830811%, 60.206604%, 62.547302%)" offset="0.585938"/><stop stop-opacity="1" stop-color="rgb(83.039856%, 60.331726%, 62.477112%)" offset="0.589844"/><stop stop-opacity="1" stop-color="rgb(83.250427%, 60.456848%, 62.406921%)" offset="0.59375"/><stop stop-opacity="1" stop-color="rgb(83.460999%, 60.58197%, 62.335205%)" offset="0.597656"/><stop stop-opacity="1" stop-color="rgb(83.67157%, 60.707092%, 62.265015%)" offset="0.601563"/><stop stop-opacity="1" stop-color="rgb(83.882141%, 60.832214%, 62.194824%)" offset="0.605469"/><stop stop-opacity="1" stop-color="rgb(84.092712%, 60.958862%, 62.124634%)" offset="0.609375"/><stop stop-opacity="1" stop-color="rgb(84.303284%, 61.083984%, 62.052917%)" offset="0.613281"/><stop stop-opacity="1" stop-color="rgb(84.513855%, 61.209106%, 61.982727%)" offset="0.617188"/><stop stop-opacity="1" stop-color="rgb(84.724426%, 61.334229%, 61.912537%)" offset="0.621094"/><stop stop-opacity="1" stop-color="rgb(84.934998%, 61.459351%, 61.842346%)" offset="0.625"/><stop stop-opacity="1" stop-color="rgb(85.145569%, 61.584473%, 61.772156%)" offset="0.628906"/><stop stop-opacity="1" stop-color="rgb(85.35614%, 61.709595%, 61.701965%)" offset="0.632813"/><stop stop-opacity="1" stop-color="rgb(85.566711%, 61.834717%, 61.630249%)" offset="0.636719"/><stop stop-opacity="1" stop-color="rgb(85.777283%, 61.961365%, 61.560059%)" offset="0.640625"/><stop stop-opacity="1" stop-color="rgb(85.987854%, 62.086487%, 61.489868%)" offset="0.644531"/><stop stop-opacity="1" stop-color="rgb(86.198425%, 62.211609%, 61.419678%)" offset="0.648438"/><stop stop-opacity="1" stop-color="rgb(86.408997%, 62.336731%, 61.347961%)" offset="0.652344"/><stop stop-opacity="1" stop-color="rgb(86.619568%, 62.461853%, 61.277771%)" offset="0.65625"/><stop stop-opacity="1" stop-color="rgb(86.830139%, 62.586975%, 61.207581%)" offset="0.660156"/><stop stop-opacity="1" stop-color="rgb(87.04071%, 62.712097%, 61.13739%)" offset="0.664062"/><stop stop-opacity="1" stop-color="rgb(87.249756%, 62.837219%, 61.065674%)" offset="0.667969"/><stop stop-opacity="1" stop-color="rgb(87.460327%, 62.963867%, 60.995483%)" offset="0.671875"/><stop stop-opacity="1" stop-color="rgb(87.670898%, 63.088989%, 60.925293%)" offset="0.675781"/><stop stop-opacity="1" stop-color="rgb(87.88147%, 63.214111%, 60.855103%)" offset="0.679688"/><stop stop-opacity="1" stop-color="rgb(88.092041%, 63.339233%, 60.784912%)" offset="0.683594"/><stop stop-opacity="1" stop-color="rgb(88.302612%, 63.464355%, 60.714722%)" offset="0.6875"/><stop stop-opacity="1" stop-color="rgb(88.513184%, 63.589478%, 60.643005%)" offset="0.691406"/><stop stop-opacity="1" stop-color="rgb(88.723755%, 63.7146%, 60.572815%)" offset="0.695312"/><stop stop-opacity="1" stop-color="rgb(88.934326%, 63.839722%, 60.502625%)" offset="0.699219"/><stop stop-opacity="1" stop-color="rgb(89.144897%, 63.96637%, 60.432434%)" offset="0.703125"/><stop stop-opacity="1" stop-color="rgb(89.355469%, 64.091492%, 60.360718%)" offset="0.707031"/><stop stop-opacity="1" stop-color="rgb(89.56604%, 64.216614%, 60.290527%)" offset="0.710938"/><stop stop-opacity="1" stop-color="rgb(89.776611%, 64.341736%, 60.220337%)" offset="0.714844"/><stop stop-opacity="1" stop-color="rgb(89.987183%, 64.466858%, 60.150146%)" offset="0.71875"/><stop stop-opacity="1" stop-color="rgb(90.197754%, 64.59198%, 60.07843%)" offset="0.722656"/><stop stop-opacity="1" stop-color="rgb(90.408325%, 64.717102%, 60.00824%)" offset="0.726563"/><stop stop-opacity="1" stop-color="rgb(90.618896%, 64.842224%, 59.938049%)" offset="0.730469"/><stop stop-opacity="1" stop-color="rgb(90.829468%, 64.968872%, 59.867859%)" offset="0.734375"/><stop stop-opacity="1" stop-color="rgb(91.040039%, 65.093994%, 59.796143%)" offset="0.738281"/><stop stop-opacity="1" stop-color="rgb(91.25061%, 65.219116%, 59.725952%)" offset="0.742188"/><stop stop-opacity="1" stop-color="rgb(91.459656%, 65.344238%, 59.655762%)" offset="0.746094"/><stop stop-opacity="1" stop-color="rgb(91.670227%, 65.46936%, 59.585571%)" offset="0.75"/><stop stop-opacity="1" stop-color="rgb(91.880798%, 65.594482%, 59.515381%)" offset="0.753906"/><stop stop-opacity="1" stop-color="rgb(92.09137%, 65.72113%, 59.44519%)" offset="0.757813"/><stop stop-opacity="1" stop-color="rgb(92.301941%, 65.846252%, 59.373474%)" offset="0.761719"/><stop stop-opacity="1" stop-color="rgb(92.512512%, 65.971375%, 59.303284%)" offset="0.765625"/><stop stop-opacity="1" stop-color="rgb(92.723083%, 66.096497%, 59.233093%)" offset="0.769531"/><stop stop-opacity="1" stop-color="rgb(92.933655%, 66.221619%, 59.162903%)" offset="0.773438"/><stop stop-opacity="1" stop-color="rgb(93.144226%, 66.346741%, 59.091187%)" offset="0.777344"/><stop stop-opacity="1" stop-color="rgb(93.354797%, 66.471863%, 59.020996%)" offset="0.78125"/><stop stop-opacity="1" stop-color="rgb(93.565369%, 66.596985%, 58.950806%)" offset="0.785156"/><stop stop-opacity="1" stop-color="rgb(93.77594%, 66.723633%, 58.880615%)" offset="0.789063"/><stop stop-opacity="1" stop-color="rgb(93.986511%, 66.848755%, 58.808899%)" offset="0.792969"/><stop stop-opacity="1" stop-color="rgb(94.197083%, 66.973877%, 58.738708%)" offset="0.796875"/><stop stop-opacity="1" stop-color="rgb(94.407654%, 67.098999%, 58.668518%)" offset="0.800781"/><stop stop-opacity="1" stop-color="rgb(94.618225%, 67.224121%, 58.598328%)" offset="0.804688"/><stop stop-opacity="1" stop-color="rgb(94.828796%, 67.349243%, 58.526611%)" offset="0.808594"/><stop stop-opacity="1" stop-color="rgb(95.039368%, 67.474365%, 58.456421%)" offset="0.8125"/><stop stop-opacity="1" stop-color="rgb(95.249939%, 67.599487%, 58.38623%)" offset="0.816406"/><stop stop-opacity="1" stop-color="rgb(95.46051%, 67.726135%, 58.31604%)" offset="0.820312"/><stop stop-opacity="1" stop-color="rgb(95.669556%, 67.851257%, 58.24585%)" offset="0.824219"/><stop stop-opacity="1" stop-color="rgb(95.880127%, 67.976379%, 58.175659%)" offset="0.828125"/><stop stop-opacity="1" stop-color="rgb(96.090698%, 68.101501%, 58.103943%)" offset="0.832031"/><stop stop-opacity="1" stop-color="rgb(96.30127%, 68.226624%, 58.033752%)" offset="0.835938"/><stop stop-opacity="1" stop-color="rgb(96.511841%, 68.351746%, 57.963562%)" offset="0.839844"/><stop stop-opacity="1" stop-color="rgb(96.722412%, 68.476868%, 57.893372%)" offset="0.84375"/><stop stop-opacity="1" stop-color="rgb(96.932983%, 68.60199%, 57.821655%)" offset="0.847656"/><stop stop-opacity="1" stop-color="rgb(97.143555%, 68.728638%, 57.751465%)" offset="0.851562"/><stop stop-opacity="1" stop-color="rgb(97.354126%, 68.85376%, 57.681274%)" offset="0.855469"/><stop stop-opacity="1" stop-color="rgb(97.564697%, 68.978882%, 57.611084%)" offset="0.859375"/><stop stop-opacity="1" stop-color="rgb(97.581482%, 68.988037%, 57.60498%)" offset="0.875"/><stop stop-opacity="1" stop-color="rgb(97.599792%, 68.998718%, 57.598877%)" offset="1"/></linearGradient><mask id="a8dcc149dd"><g filter="url(#52019c6cbe)"><rect x="-37.5" width="450" fill="#000000" y="-37.499999" height="449.999989" fill-opacity="0.54"/></g></mask><clipPath id="c09c57c386"><path d="M 0.390625 84 L 22 84 L 22 131 L 0.390625 131 Z M 0.390625 84 " clip-rule="nonzero"/></clipPath><clipPath id="7d27186379"><path d="M 150 1.046875 L 171 1.046875 L 171 213.828125 L 150 213.828125 Z M 150 1.046875 " clip-rule="nonzero"/></clipPath><clipPath id="063df231c5"><path d="M 299.625 84 L 320.53125 84 L 320.53125 131 L 299.625 131 Z M 299.625 84 " clip-rule="nonzero"/></clipPath><clipPath id="562d783707"><rect x="0" width="324" y="0" height="215"/></clipPath></defs><g clip-path="url(#e4e6b32cf5)"><path fill="url(#05062dd052)" d="M 0 0.03125 L 0 375 L 374.96875 375 L 374.96875 0.03125 Z M 0 0.03125 " fill-rule="nonzero"/></g><path fill="#fffffd" d="M 77.714844 93.9375 C 73.527344 93.9375 70.121094 97.34375 70.121094 101.527344 L 70.125 273.535156 C 70.125 277.71875 73.527344 281.125 77.710938 281.125 L 297.222656 281.125 C 301.410156 281.125 304.8125 277.71875 304.8125 273.535156 L 304.8125 101.527344 C 304.8125 97.339844 301.40625 93.9375 297.222656 93.9375 Z M 297.226562 284.851562 L 77.714844 284.851562 C 71.476562 284.851562 66.398438 279.773438 66.398438 273.535156 L 66.398438 101.527344 C 66.398438 95.285156 71.476562 90.210938 77.710938 90.210938 L 297.222656 90.210938 C 303.460938 90.210938 308.539062 95.285156 308.539062 101.527344 L 308.539062 273.535156 C 308.539062 279.773438 303.460938 284.851562 297.226562 284.851562 Z M 297.226562 284.851562 " fill-opacity="1" fill-rule="evenodd"/><path fill="#fffffd" d="M 306.679688 130.328125 L 68.261719 130.328125 C 67.230469 130.328125 66.398438 129.496094 66.398438 128.464844 C 66.398438 127.4375 67.230469 126.605469 68.261719 126.605469 L 306.679688 126.605469 C 307.707031 126.605469 308.539062 127.4375 308.539062 128.464844 C 308.539062 129.496094 307.703125 130.328125 306.679688 130.328125 Z M 306.679688 130.328125 " fill-opacity="1" fill-rule="evenodd"/><path fill="#fffffd" d="M 90.980469 106.398438 C 88.871094 106.398438 87.152344 108.113281 87.152344 110.222656 C 87.152344 112.339844 88.867188 114.054688 90.976562 114.054688 C 93.09375 114.054688 94.808594 112.339844 94.808594 110.222656 C 94.8125 108.113281 93.09375 106.398438 90.980469 106.398438 Z M 90.980469 117.78125 C 86.820312 117.78125 83.425781 114.390625 83.425781 110.226562 C 83.425781 106.058594 86.816406 102.671875 90.976562 102.671875 C 95.144531 102.671875 98.535156 106.058594 98.535156 110.226562 C 98.535156 114.390625 95.144531 117.78125 90.980469 117.78125 Z M 90.980469 117.78125 " fill-opacity="1" fill-rule="evenodd"/><path fill="#fffffd" d="M 113.441406 106.398438 C 111.332031 106.398438 109.613281 108.113281 109.613281 110.222656 C 109.613281 112.339844 111.332031 114.054688 113.441406 114.054688 C 115.554688 114.054688 117.273438 112.339844 117.273438 110.222656 C 117.273438 108.113281 115.554688 106.398438 113.441406 106.398438 Z M 113.441406 117.78125 C 109.28125 117.78125 105.886719 114.390625 105.886719 110.226562 C 105.886719 106.058594 109.277344 102.671875 113.441406 102.671875 C 117.609375 102.671875 120.996094 106.058594 120.996094 110.226562 C 121 114.390625 117.605469 117.78125 113.441406 117.78125 Z M 113.441406 117.78125 " fill-opacity="1" fill-rule="evenodd"/><path fill="#fffffd" d="M 135.902344 106.398438 C 133.792969 106.398438 132.074219 108.113281 132.074219 110.222656 C 132.078125 112.339844 133.792969 114.054688 135.902344 114.054688 C 138.015625 114.054688 139.734375 112.339844 139.734375 110.222656 C 139.734375 108.113281 138.015625 106.398438 135.902344 106.398438 Z M 135.902344 117.78125 C 131.742188 117.78125 128.351562 114.390625 128.351562 110.226562 C 128.351562 106.058594 131.742188 102.671875 135.902344 102.671875 C 140.070312 102.671875 143.460938 106.058594 143.460938 110.226562 C 143.460938 114.390625 140.070312 117.78125 135.902344 117.78125 Z M 135.902344 117.78125 " fill-opacity="1" fill-rule="evenodd"/><path fill="#fffffd" d="M 124.121094 166.929688 C 123.78125 166.929688 123.441406 166.953125 123.101562 167.003906 C 121.296875 167.273438 119.707031 168.222656 118.621094 169.6875 C 116.382812 172.714844 117.015625 177 120.039062 179.238281 L 153.957031 204.296875 C 154.429688 204.644531 154.710938 205.203125 154.710938 205.792969 C 154.710938 206.382812 154.429688 206.941406 153.957031 207.289062 L 120.039062 232.34375 C 117.015625 234.585938 116.378906 238.867188 118.621094 241.894531 C 119.707031 243.359375 121.296875 244.316406 123.101562 244.582031 C 124.902344 244.847656 126.707031 244.398438 128.171875 243.3125 L 170.960938 211.707031 C 171 211.675781 171.042969 211.648438 171.085938 211.621094 C 171.824219 211.164062 172.464844 210.570312 172.988281 209.863281 C 174.074219 208.394531 174.527344 206.585938 174.253906 204.773438 C 173.992188 203.054688 173.113281 201.53125 171.769531 200.449219 C 171.6875 200.40625 171.605469 200.355469 171.527344 200.296875 L 128.179688 168.269531 L 128.171875 168.269531 C 126.984375 167.390625 125.570312 166.929688 124.121094 166.929688 Z M 124.125 248.386719 C 123.605469 248.386719 123.082031 248.347656 122.554688 248.269531 C 119.769531 247.851562 117.304688 246.378906 115.628906 244.113281 C 112.164062 239.441406 113.144531 232.816406 117.820312 229.351562 L 149.710938 205.796875 L 117.824219 182.238281 C 113.144531 178.769531 112.164062 172.148438 115.628906 167.472656 C 117.304688 165.207031 119.765625 163.734375 122.554688 163.320312 C 125.347656 162.90625 128.128906 163.601562 130.386719 165.28125 L 173.492188 197.117188 C 173.585938 197.167969 173.671875 197.222656 173.757812 197.285156 C 176.035156 198.960938 177.515625 201.425781 177.933594 204.21875 C 178.359375 207.019531 177.664062 209.808594 175.984375 212.082031 C 175.195312 213.148438 174.230469 214.046875 173.113281 214.75 L 130.386719 246.3125 C 128.554688 247.667969 126.375 248.386719 124.125 248.386719 Z M 124.125 248.386719 " fill-opacity="1" fill-rule="evenodd"/><path fill="#fffffd" d="M 194.144531 198.9375 C 190.363281 198.9375 187.285156 202.011719 187.285156 205.796875 C 187.289062 209.574219 190.363281 212.648438 194.144531 212.648438 L 250.808594 212.648438 C 254.585938 212.648438 257.660156 209.574219 257.660156 205.796875 C 257.660156 202.011719 254.585938 198.9375 250.804688 198.9375 Z M 250.808594 216.375 L 194.144531 216.375 C 188.3125 216.375 183.5625 211.625 183.5625 205.796875 C 183.5625 199.960938 188.308594 195.210938 194.144531 195.210938 L 250.808594 195.210938 C 256.640625 195.210938 261.386719 199.960938 261.386719 205.796875 C 261.386719 211.625 256.640625 216.375 250.808594 216.375 Z M 250.808594 216.375 " fill-opacity="1" fill-rule="evenodd"/><g mask="url(#a8dcc149dd)"><g transform="matrix(1, 0, 0, 1, 27, 80)"><g clip-path="url(#562d783707)"><path fill="#f5f5f5" d="M 135.496094 181.199219 C 129.800781 181.199219 125.179688 176.578125 125.179688 170.882812 L 125.179688 44.050781 C 125.179688 38.355469 129.800781 33.734375 135.496094 33.734375 C 141.195312 33.734375 145.816406 38.355469 145.816406 44.050781 L 145.816406 170.882812 C 145.816406 176.578125 141.195312 181.199219 135.496094 181.199219 " fill-opacity="1" fill-rule="nonzero"/><path fill="#f5f5f5" d="M 285.25 144.507812 C 279.550781 144.507812 274.929688 139.902344 274.929688 134.191406 L 274.929688 80.730469 C 274.929688 75.035156 279.550781 70.414062 285.25 70.414062 C 290.945312 70.414062 295.566406 75.035156 295.566406 80.730469 L 295.566406 134.191406 C 295.566406 139.902344 290.945312 144.507812 285.25 144.507812 " fill-opacity="1" fill-rule="nonzero"/><path fill="#f5f5f5" d="M 110.546875 164.917969 C 104.835938 164.917969 100.230469 160.296875 100.230469 154.597656 L 100.230469 60.347656 C 100.230469 54.640625 104.835938 50.03125 110.546875 50.03125 C 116.246094 50.03125 120.867188 54.640625 120.867188 60.347656 L 120.867188 154.597656 C 120.867188 160.296875 116.246094 164.917969 110.546875 164.917969 " fill-opacity="1" fill-rule="nonzero"/><path fill="#f5f5f5" d="M 260.300781 164.917969 C 254.589844 164.917969 249.980469 160.296875 249.980469 154.597656 L 249.980469 60.347656 C 249.980469 54.640625 254.589844 50.03125 260.300781 50.03125 C 265.996094 50.03125 270.617188 54.640625 270.617188 60.347656 L 270.617188 154.597656 C 270.617188 160.296875 265.996094 164.917969 260.300781 164.917969 " fill-opacity="1" fill-rule="nonzero"/><path fill="#f5f5f5" d="M 85.585938 144.507812 C 79.886719 144.507812 75.265625 139.902344 75.265625 134.191406 L 75.265625 80.730469 C 75.265625 75.035156 79.886719 70.414062 85.585938 70.414062 C 91.28125 70.414062 95.902344 75.035156 95.902344 80.730469 L 95.902344 134.191406 C 95.902344 139.902344 91.28125 144.507812 85.585938 144.507812 " fill-opacity="1" fill-rule="nonzero"/><path fill="#f5f5f5" d="M 235.335938 144.507812 C 229.640625 144.507812 225.015625 139.902344 225.015625 134.191406 L 225.015625 80.730469 C 225.015625 75.035156 229.640625 70.414062 235.335938 70.414062 C 241.03125 70.414062 245.652344 75.035156 245.652344 80.730469 L 245.652344 134.191406 C 245.652344 139.902344 241.03125 144.507812 235.335938 144.507812 " fill-opacity="1" fill-rule="nonzero"/><path fill="#f5f5f5" d="M 60.621094 164.917969 C 54.925781 164.917969 50.304688 160.296875 50.304688 154.597656 L 50.304688 60.347656 C 50.304688 54.640625 54.925781 50.03125 60.621094 50.03125 C 66.316406 50.03125 70.941406 54.640625 70.941406 60.347656 L 70.941406 154.597656 C 70.941406 160.296875 66.316406 164.917969 60.621094 164.917969 " fill-opacity="1" fill-rule="nonzero"/><path fill="#f5f5f5" d="M 210.371094 164.917969 C 204.675781 164.917969 200.054688 160.296875 200.054688 154.597656 L 200.054688 60.347656 C 200.054688 54.640625 204.675781 50.03125 210.371094 50.03125 C 216.070312 50.03125 220.691406 54.640625 220.691406 60.347656 L 220.691406 154.597656 C 220.691406 160.296875 216.070312 164.917969 210.371094 164.917969 " fill-opacity="1" fill-rule="nonzero"/><path fill="#f5f5f5" d="M 35.671875 144.507812 C 29.976562 144.507812 25.351562 139.902344 25.351562 134.191406 L 25.351562 80.730469 C 25.351562 75.035156 29.976562 70.414062 35.671875 70.414062 C 41.367188 70.414062 45.992188 75.035156 45.992188 80.730469 L 45.992188 134.191406 C 45.992188 139.902344 41.367188 144.507812 35.671875 144.507812 " fill-opacity="1" fill-rule="nonzero"/><path fill="#f5f5f5" d="M 185.410156 181.199219 C 179.714844 181.199219 175.089844 176.578125 175.089844 170.882812 L 175.089844 44.050781 C 175.089844 38.355469 179.714844 33.734375 185.410156 33.734375 C 191.121094 33.734375 195.726562 38.355469 195.726562 44.050781 L 195.726562 170.882812 C 195.726562 176.578125 191.121094 181.199219 185.410156 181.199219 " fill-opacity="1" fill-rule="nonzero"/><g clip-path="url(#c09c57c386)"><path fill="#f5f5f5" d="M 10.707031 130.75 C 5.011719 130.75 0.390625 126.140625 0.390625 120.433594 L 0.390625 94.488281 C 0.390625 88.792969 5.011719 84.171875 10.707031 84.171875 C 16.40625 84.171875 21.027344 88.792969 21.027344 94.488281 L 21.027344 120.433594 C 21.027344 126.140625 16.40625 130.75 10.707031 130.75 " fill-opacity="1" fill-rule="nonzero"/></g><g clip-path="url(#7d27186379)"><path fill="#f5f5f5" d="M 160.460938 213.875 C 154.761719 213.875 150.140625 209.253906 150.140625 203.558594 L 150.140625 11.378906 C 150.140625 5.679688 154.761719 1.058594 160.460938 1.058594 C 166.15625 1.058594 170.777344 5.679688 170.777344 11.378906 L 170.777344 203.558594 C 170.777344 209.253906 166.15625 213.875 160.460938 213.875 " fill-opacity="1" fill-rule="nonzero"/></g><g clip-path="url(#063df231c5)"><path fill="#f5f5f5" d="M 310.210938 130.75 C 304.515625 130.75 299.894531 126.140625 299.894531 120.433594 L 299.894531 94.488281 C 299.894531 88.792969 304.515625 84.171875 310.210938 84.171875 C 315.90625 84.171875 320.53125 88.792969 320.53125 94.488281 L 320.53125 120.433594 C 320.53125 126.140625 315.90625 130.75 310.210938 130.75 " fill-opacity="1" fill-rule="nonzero"/></g></g></g></g></svg>